<?xml version="1.0" standalone="no"?>
<!DOCTYPE svg PUBLIC "-//W3C//DTD SVG 20010904//EN"
 "http://www.w3.org/TR/2001/REC-SVG-20010904/DTD/svg10.dtd">
<svg version="1.0" xmlns="http://www.w3.org/2000/svg"
 width="200.000000pt" height="200.000000pt" viewBox="0 0 200.000000 200.000000"
 preserveAspectRatio="xMidYMid meet">
<metadata>
Created by potrace 1.16, written by Peter Selinger 2001-2019
</metadata>
<g transform="translate(0.000000,200.000000) scale(0.100000,-0.100000)"
fill="#000000" stroke="none">
<path d="M215 1225 c-16 -15 -25 -36 -25 -54 0 -26 6 -33 35 -45 19 -8 35 -21
35 -29 0 -22 -27 -39 -50 -32 -19 6 -20 3 -20 -128 0 -121 2 -137 21 -161 20
-26 22 -26 150 -26 l129 0 0 44 c0 24 11 77 24 117 35 106 20 160 -47 177 -42
11 -57 36 -35 58 16 16 20 16 63 0 97 -38 125 -121 81 -247 -32 -94 -35 -149
-6 -149 11 0 20 4 20 9 0 5 24 32 53 60 31 30 46 51 36 51 -8 0 -30 -16 -49
-35 -19 -19 -41 -35 -49 -35 -10 1 0 15 26 39 36 33 39 39 25 48 -25 16 -2 49
32 46 l26 -2 0 135 c0 130 -1 136 -25 159 -23 24 -30 25 -145 25 l-120 0 0
-37 c0 -21 -12 -69 -25 -108 -32 -91 -32 -95 9 -56 19 18 36 29 39 23 4 -5
-12 -26 -33 -47 -59 -58 -48 -65 15 -10 74 63 83 50 11 -16 -31 -28 -53 -55
-50 -61 4 -5 33 16 65 48 32 32 62 54 66 50 5 -5 -18 -32 -50 -60 -32 -29 -55
-55 -51 -59 4 -3 27 12 52 33 58 52 78 52 27 0 -32 -33 -36 -42 -25 -54 19
-24 5 -46 -31 -46 -105 0 -161 130 -110 258 12 29 21 65 21 79 l0 27 -40 -39
c-23 -22 -40 -33 -40 -25 0 8 19 31 43 51 23 20 39 40 35 44 -4 5 -30 -13 -57
-38 -64 -60 -89 -61 -31 -2 40 40 42 45 22 45 -13 0 -34 -11 -47 -25z"/>
<path d="M810 955 l0 -75 39 0 c54 0 85 27 85 75 0 48 -31 75 -85 75 l-39 0 0
-75z"/>
</g>
</svg>
